<svg width="28" height="28" viewBox="0 0 28 28" fill="none" xmlns="http://www.w3.org/2000/svg">
<mask id="mask0_2_5341" style="mask-type:luminance" maskUnits="userSpaceOnUse" x="2" y="2" width="24" height="25">
<path d="M2 1.99996H26.0002V26.0001H2V1.99996Z" fill="white"/>
</mask>
<g mask="url(#mask0_2_5341)">
<path d="M2.70312 25.297H25.297" stroke="#888599" stroke-width="1.3" stroke-miterlimit="10" stroke-linecap="round" stroke-linejoin="round"/>
<path d="M6.50002 19.672H4.625C4.36611 19.672 4.15625 19.8818 4.15625 20.1407V25.297H6.96877V20.1407C6.96877 19.8818 6.75891 19.672 6.50002 19.672Z" stroke="#888599" stroke-width="1.3" stroke-miterlimit="10" stroke-linecap="round" stroke-linejoin="round"/>
<path d="M12.125 17.9844H10.25C9.99111 17.9844 9.78125 18.1943 9.78125 18.4532V25.297H12.5938V18.4532C12.5938 18.1943 12.3839 17.9844 12.125 17.9844Z" stroke="#888599" stroke-width="1.3" stroke-miterlimit="10" stroke-linecap="round" stroke-linejoin="round"/>
<path d="M17.75 15.4063H15.875C15.6161 15.4063 15.4062 15.6162 15.4062 15.8751V25.297H18.2188V15.8751C18.2188 15.6162 18.0089 15.4063 17.75 15.4063Z" stroke="#888599" stroke-width="1.3" stroke-miterlimit="10" stroke-linecap="round" stroke-linejoin="round"/>
<path d="M23.375 10.7188H21.5C21.2411 10.7188 21.0312 10.9286 21.0312 11.1875V25.297H23.8438V11.1875C23.8438 10.9286 23.6339 10.7188 23.375 10.7188Z" stroke="#888599" stroke-width="1.3" stroke-miterlimit="10" stroke-linecap="round" stroke-linejoin="round"/>
<path d="M2.70312 16.4049C11.9385 16.4049 21.174 9.3445 24.1456 2.70325" stroke="#888599" stroke-width="1.3" stroke-miterlimit="10" stroke-linecap="round" stroke-linejoin="round"/>
<path d="M19.8477 3.85458L24.1447 2.70318L25.2961 7.00024" stroke="#888599" stroke-width="1.3" stroke-miterlimit="10" stroke-linecap="round" stroke-linejoin="round"/>
</g>
</svg>
