<svg xmlns="http://www.w3.org/2000/svg" width="140" height="135" viewBox="0 0 140 135" fill="none">
  <g filter="url(#filter0_d_22_947)">
    <path fill-rule="evenodd" clip-rule="evenodd" d="M115.602 63.4464C114.632 63.7019 113.638 63.1225 113.382 62.1522C110.003 49.3217 101.882 40.5292 91.3655 36.2562C80.8161 31.9699 67.7018 32.1748 54.3353 37.6956C53.4079 38.0786 52.3456 37.6374 51.9626 36.71C51.5796 35.7826 52.0208 34.7204 52.9482 34.3373C67.0461 28.5144 81.1601 28.1878 92.7332 32.89C104.339 37.6054 113.234 47.3214 116.896 61.2269C117.151 62.1972 116.572 63.1909 115.602 63.4464Z" fill="url(#paint0_angular_22_947)"/>
    <path fill-rule="evenodd" clip-rule="evenodd" d="M41.7866 42.9304C42.3399 43.7603 42.1106 44.8782 41.2745 45.4274C28.0118 54.1374 22.634 64.3747 22.443 73.6803C22.2511 83.0255 27.2763 91.8437 35.6604 97.7389C52.3041 109.442 82.409 109.559 108.955 77.3894C109.59 76.6195 110.734 76.5065 111.51 77.137C112.285 77.7675 112.399 78.9028 111.764 79.6727C84.2743 112.987 52.0801 113.701 33.5614 100.679C24.3642 94.2126 18.5924 84.3385 18.8127 73.6069C19.0339 62.8357 25.2776 51.6118 39.2708 42.422C40.1069 41.8729 41.2333 42.1005 41.7866 42.9304Z" fill="url(#paint1_angular_22_947)"/>
    <path fill-rule="evenodd" clip-rule="evenodd" d="M104.102 75.819C105.098 75.904 105.836 76.7745 105.751 77.7632C104.385 93.506 99.6557 103.929 92.9121 110.06C86.1283 116.227 77.5787 117.806 69.1685 116.408C60.7924 115.015 52.4679 110.669 45.824 104.845C39.1881 99.0278 34.0746 91.5992 32.3269 83.9048C32.107 82.9368 32.7198 81.9751 33.6955 81.757C34.6712 81.5388 35.6404 82.1467 35.8603 83.1148C37.3963 89.8771 41.9845 96.6838 48.2222 102.152C54.4518 107.613 62.1725 111.601 69.7671 112.864C77.3274 114.121 84.6739 112.675 90.4651 107.41C96.2964 102.109 100.821 92.6908 102.142 77.4551C102.228 76.4664 103.105 75.7339 104.102 75.819Z" fill="url(#paint2_angular_22_947)"/>
    <path d="M121.479 65.545C121.479 68.203 119.324 70.3578 116.666 70.3578C114.008 70.3578 111.854 68.203 111.854 65.545C111.854 62.8869 114.008 60.7322 116.666 60.7322C119.324 60.7322 121.479 62.8869 121.479 65.545Z" fill="#EB00FF"/>
    <path d="M38.3785 79.3416C38.3785 81.9996 36.2238 84.1544 33.5657 84.1544C30.9077 84.1544 28.7529 81.9996 28.7529 79.3416C28.7529 76.6836 30.9077 74.5288 33.5657 74.5288C36.2238 74.5288 38.3785 76.6836 38.3785 79.3416Z" fill="#5F44FF"/>
    <path fill-rule="evenodd" clip-rule="evenodd" d="M42.85 25.0888C47.2084 22.1163 52.1076 20.0453 57.2679 18.9947C62.4281 17.9441 67.7471 17.9348 72.9208 18.9666C78.0944 19.9984 83.0206 22.051 87.4184 25.0058C91.8162 27.9605 95.5997 31.7595 98.5538 36.1851C101.508 40.6106 103.575 45.5766 104.639 50.7997C104.839 51.7829 104.204 52.7422 103.221 52.9424C102.238 53.1425 101.278 52.5078 101.078 51.5246C100.109 46.7621 98.2238 42.2352 95.5318 38.2023C92.8398 34.1695 89.394 30.7105 85.3921 28.0218C81.3903 25.3331 76.9109 23.4674 72.2101 22.5299C67.5094 21.5924 62.6784 21.6012 57.9928 22.5552C53.3071 23.5091 48.8573 25.3899 44.8973 28.0906C40.9372 30.7915 37.5438 34.26 34.9118 38.2992C32.2797 42.3385 30.4606 46.8695 29.5597 51.6338C28.6587 56.3982 28.6938 61.3017 29.6634 66.0642C29.8635 67.0474 29.2288 68.0067 28.2456 68.2068C27.2624 68.407 26.3031 67.7722 26.1029 66.7891C25.0396 61.566 25.0008 56.1869 25.9895 50.9587C26.9782 45.7304 28.9751 40.7545 31.8676 36.3156C34.7601 31.8765 38.4916 28.0613 42.85 25.0888Z" fill="url(#paint3_angular_22_947)"/>
    <path fill-rule="evenodd" clip-rule="evenodd" d="M57.9173 50.6594C58.4104 50.5823 58.9304 50.5425 59.4789 50.5425H79.828C80.3793 50.5425 80.8316 50.565 81.2321 50.6329C81.2609 50.6377 81.2898 50.6419 81.3188 50.6453C83.8375 50.943 85.8174 52.021 87.1726 53.6171C88.531 55.217 89.3586 57.4528 89.3586 60.2291V61.7558H86.4307C84.6969 61.7558 83.0909 62.4492 81.9192 63.6635C81.0806 64.5015 80.4703 65.5774 80.1916 66.7734C80.0374 67.4343 79.9845 68.1319 80.0503 68.8463C80.3469 72.3924 83.4799 74.7867 86.7015 74.7867H89.3586V76.3153C89.3586 79.3525 88.3703 81.7434 86.7695 83.3704C85.1686 84.9974 82.8163 86.0019 79.828 86.0019H59.4789C56.4906 86.0019 54.1383 84.9974 52.5375 83.3704C50.9367 81.7434 49.9483 79.3525 49.9483 76.3153V68.8697C49.9483 67.8737 49.1539 67.0662 48.1739 67.0662C47.1939 67.0662 46.3994 67.8737 46.3994 68.8697V76.3153C46.3994 80.1722 47.6721 83.5264 50.028 85.9209C52.384 88.3154 55.6842 89.6089 59.4789 89.6089H79.828C83.6228 89.6089 86.923 88.3154 89.2789 85.9209C91.6349 83.5264 92.9075 80.1722 92.9075 76.3153V74.3411C94.2457 73.6605 95.169 72.2669 95.169 70.6374V65.9032C95.169 64.2737 94.2457 62.8801 92.9075 62.1993V60.2291C92.9075 56.7088 91.8472 53.6017 89.8593 51.2605C87.8767 48.9255 85.0675 47.4666 81.771 47.0675C81.1013 46.9579 80.4389 46.9355 79.828 46.9355H59.4789C58.7698 46.9355 58.0771 46.9864 57.4022 47.0906C54.1333 47.513 51.355 48.9815 49.3981 51.3149C47.4401 53.6498 46.3994 56.7362 46.3994 60.2291C46.3994 61.2252 47.1939 62.0326 48.1739 62.0326C49.1539 62.0326 49.9483 61.2252 49.9483 60.2291C49.9483 57.4714 50.7617 55.2494 52.0991 53.6547C53.4328 52.0643 55.3824 50.9834 57.8684 50.6664C57.8848 50.6643 57.9011 50.662 57.9173 50.6594ZM83.6456 67.6038C83.7681 67.0791 84.0374 66.6041 84.4138 66.2306C84.4246 66.22 84.4352 66.2092 84.4457 66.1982C84.9459 65.6761 85.6395 65.3648 86.4302 65.3648H91.1145C91.4253 65.3973 91.6201 65.6474 91.6201 65.9032V70.6374C91.6201 70.8991 91.4159 71.1552 91.092 71.1776H86.702C85.043 71.1776 83.7023 69.9458 83.5865 68.534C83.5859 68.527 83.5853 68.5199 83.5846 68.5128C83.5554 68.2004 83.5779 67.8945 83.6456 67.6038ZM57.7042 61.3778C57.7042 60.3818 58.4986 59.5743 59.4786 59.5743H73.0447C74.0247 59.5743 74.8192 60.3818 74.8192 61.3778C74.8192 62.3739 74.0247 63.1813 73.0447 63.1813H59.4786C58.4986 63.1813 57.7042 62.3739 57.7042 61.3778Z" fill="url(#paint4_linear_22_947)"/>
  </g>
  <defs>
    <filter id="filter0_d_22_947" x="0.790133" y="0.183199" width="138.706" height="134.715" filterUnits="userSpaceOnUse" color-interpolation-filters="sRGB">
      <feFlood flood-opacity="0" result="BackgroundImageFix"/>
      <feColorMatrix in="SourceAlpha" type="matrix" values="0 0 0 0 0 0 0 0 0 0 0 0 0 0 0 0 0 0 127 0" result="hardAlpha"/>
      <feOffset/>
      <feGaussianBlur stdDeviation="9.00825"/>
      <feComposite in2="hardAlpha" operator="out"/>
      <feColorMatrix type="matrix" values="0 0 0 0 0.509833 0 0 0 0 0 0 0 0 0 0.554167 0 0 0 1 0"/>
      <feBlend mode="normal" in2="BackgroundImageFix" result="effect1_dropShadow_22_947"/>
      <feBlend mode="normal" in="SourceGraphic" in2="effect1_dropShadow_22_947" result="shape"/>
    </filter>
    <radialGradient id="paint0_angular_22_947" cx="0" cy="0" r="1" gradientUnits="userSpaceOnUse" gradientTransform="translate(82.3003 48.8532) rotate(22.249) scale(35.4792 22.2252)">
      <stop offset="0.478015" stop-color="#2F0DFF" stop-opacity="0"/>
      <stop offset="0.987794" stop-color="#EB00FF"/>
    </radialGradient>
    <radialGradient id="paint1_angular_22_947" cx="0" cy="0" r="1" gradientUnits="userSpaceOnUse" gradientTransform="translate(63.66 68.3239) rotate(-68.915) scale(35.3121 46.5048)">
      <stop offset="0.197972" stop-color="#EB00FF"/>
      <stop offset="0.983388" stop-color="#2F0DFF" stop-opacity="0"/>
    </radialGradient>
    <radialGradient id="paint2_angular_22_947" cx="0" cy="0" r="1" gradientUnits="userSpaceOnUse" gradientTransform="translate(70.5126 85.8701) rotate(177.171) scale(35.8656 29.7614)">
      <stop offset="0.515935" stop-color="#2F0DFF" stop-opacity="0"/>
      <stop offset="0.990018" stop-color="#5F44FF"/>
    </radialGradient>
    <radialGradient id="paint3_angular_22_947" cx="0" cy="0" r="1" gradientUnits="userSpaceOnUse" gradientTransform="translate(55.8966 39.6006) rotate(63.7286) scale(21.4047 42.2106)">
      <stop offset="0.149754" stop-color="#5F44FF"/>
      <stop offset="0.915519" stop-color="#2F0DFF" stop-opacity="0"/>
    </radialGradient>
    <linearGradient id="paint4_linear_22_947" x1="43.8432" y1="44.2603" x2="97.2583" y2="91.8974" gradientUnits="userSpaceOnUse">
      <stop stop-color="#EB00FF"/>
      <stop offset="1" stop-color="#2F0DFF"/>
    </linearGradient>
  </defs>
</svg>