<svg width="20" height="24" viewBox="0 0 20 24" fill="none" xmlns="http://www.w3.org/2000/svg">
<path d="M17.25 23.7812H6.375C5.65394 23.7812 4.96242 23.4948 4.45255 22.9849C3.94269 22.4751 3.65625 21.7836 3.65625 21.0625V6.5625C3.65625 5.84144 3.94269 5.14992 4.45255 4.64005C4.96242 4.13019 5.65394 3.84375 6.375 3.84375H17.25C17.9711 3.84375 18.6626 4.13019 19.1724 4.64005C19.6823 5.14992 19.9688 5.84144 19.9688 6.5625V21.0625C19.9688 21.7836 19.6823 22.4751 19.1724 22.9849C18.6626 23.4948 17.9711 23.7812 17.25 23.7812ZM6.375 5.65625C6.13465 5.65625 5.90414 5.75173 5.73418 5.92168C5.56423 6.09164 5.46875 6.32215 5.46875 6.5625V21.0625C5.46875 21.3029 5.56423 21.5334 5.73418 21.7033C5.90414 21.8733 6.13465 21.9688 6.375 21.9688H17.25C17.4904 21.9688 17.7209 21.8733 17.8908 21.7033C18.0608 21.5334 18.1562 21.3029 18.1562 21.0625V6.5625C18.1562 6.32215 18.0608 6.09164 17.8908 5.92168C17.7209 5.75173 17.4904 5.65625 17.25 5.65625H6.375Z" fill="white" fill-opacity="0.5"/>
<path d="M0.9375 14.7188C0.697148 14.7188 0.466639 14.6233 0.296685 14.4533C0.12673 14.2834 0.03125 14.0529 0.03125 13.8125V2.9375C0.03125 2.21644 0.317689 1.52492 0.827554 1.01505C1.33742 0.505189 2.02894 0.21875 2.75 0.21875H11.8125C12.0529 0.21875 12.2834 0.31423 12.4533 0.484184C12.6233 0.654139 12.7188 0.884648 12.7188 1.125C12.7188 1.36535 12.6233 1.59586 12.4533 1.76582C12.2834 1.93577 12.0529 2.03125 11.8125 2.03125H2.75C2.50965 2.03125 2.27914 2.12673 2.10918 2.29668C1.93923 2.46664 1.84375 2.69715 1.84375 2.9375V13.8125C1.84375 14.0529 1.74827 14.2834 1.57832 14.4533C1.40836 14.6233 1.17785 14.7188 0.9375 14.7188Z" fill="white" fill-opacity="0.5"/>
</svg>
