<svg width="42" height="42" viewBox="0 0 42 42" fill="none" xmlns="http://www.w3.org/2000/svg">
<g clip-path="url(#clip0_1_3819)">
<path d="M24.9375 7.875H9.1875C8.463 7.875 7.875 8.463 7.875 9.1875C7.875 9.912 8.463 10.5 9.1875 10.5H24.9375C25.662 10.5 26.25 9.912 26.25 9.1875C26.25 8.463 25.662 7.875 24.9375 7.875ZM19.6875 13.125H9.1875C8.463 13.125 7.875 13.713 7.875 14.4375C7.875 15.162 8.463 15.75 9.1875 15.75H19.6875C20.412 15.75 21 15.162 21 14.4375C21 13.713 20.412 13.125 19.6875 13.125Z" fill="#EB00FF"/>
<path d="M28.875 0H5.25C2.35462 0 0 2.35462 0 5.25V31.5C0 32.0093 0.294 32.4739 0.756 32.6891C0.930419 32.7699 1.12027 32.812 1.3125 32.8125C1.61437 32.8125 1.91363 32.7075 2.1525 32.508L9.66263 26.25H28.875C31.7704 26.25 34.125 23.8954 34.125 21V5.25C34.125 2.35462 31.7704 0 28.875 0ZM31.5 21C31.5 22.4464 30.324 23.625 28.875 23.625H9.1875C8.88037 23.625 8.58375 23.7326 8.3475 23.9295L2.625 28.6991V5.25C2.625 3.80363 3.801 2.625 5.25 2.625H28.875C30.324 2.625 31.5 3.80363 31.5 5.25V21Z" fill="#EB00FF"/>
<path d="M36.75 10.5C36.0255 10.5 35.4375 11.088 35.4375 11.8125C35.4375 12.537 36.0255 13.125 36.75 13.125C38.199 13.125 39.375 14.3036 39.375 15.75V37.9549L34.944 34.4111C34.7109 34.2264 34.4224 34.1256 34.125 34.125H15.75C14.301 34.125 13.125 32.9464 13.125 31.5V30.1875C13.125 29.463 12.537 28.875 11.8125 28.875C11.088 28.875 10.5 29.463 10.5 30.1875V31.5C10.5 34.3954 12.8546 36.75 15.75 36.75H33.663L39.8659 41.7139C40.0998 41.899 40.3892 41.9998 40.6875 42C40.8791 42 41.0734 41.958 41.2571 41.8714C41.4796 41.7637 41.6672 41.5955 41.7986 41.3862C41.93 41.1768 41.9998 40.9347 42 40.6875V15.75C42 12.8546 39.6454 10.5 36.75 10.5Z" fill="#EB00FF"/>
</g>
<defs>
<clipPath id="clip0_1_3819">
<rect width="42" height="42" fill="white"/>
</clipPath>
</defs>
</svg>
