<svg width="46" height="46" viewBox="0 0 46 46" fill="none" xmlns="http://www.w3.org/2000/svg">
<g clip-path="url(#clip0_1_3824)">
<path d="M22.9983 39.8129H22.9861C21.598 39.8034 9.32732 39.6915 5.85082 38.7513C3.42117 38.0981 1.50328 36.1823 0.848317 33.7524C-0.0613513 30.3371 -0.00340205 23.7621 0.00288701 23.237C-0.00304268 22.7144 -0.0617106 16.085 0.845621 12.6417C0.84652 12.6386 0.847328 12.6351 0.848317 12.6319C1.49582 10.2297 3.45702 8.25445 5.84489 7.59958C5.85082 7.59779 5.85711 7.59644 5.86313 7.59473C9.30037 6.69144 21.5952 6.58084 22.9861 6.57141H23.011C24.4025 6.58084 36.7059 6.69288 40.1505 7.63444C42.5737 8.28581 44.4903 10.1992 45.1469 12.6261C46.0907 16.0717 46.0032 22.7155 45.9938 23.2764C46.0005 23.8288 46.0555 30.3449 45.1511 33.7772C45.1504 33.7808 45.1494 33.7839 45.1487 33.7871C44.4934 36.2171 42.5759 38.1329 40.1435 38.7867C40.1402 38.7878 40.1367 38.7885 40.1336 38.7896C36.6967 39.6925 24.4015 39.803 23.011 39.8129H22.9984H22.9983ZM4.31925 13.5634C3.52054 16.6026 3.59601 23.1476 3.59664 23.2135V23.261C3.57283 25.0761 3.65665 30.3326 4.31961 32.8223C4.64107 34.0145 5.58695 34.9588 6.78645 35.2813C9.35149 35.9752 19.3457 36.1935 22.9983 36.2191C26.6605 36.1935 36.6694 35.9812 39.2155 35.3151C40.4112 34.9915 41.3538 34.0503 41.6774 32.8566C42.341 30.3305 42.4242 25.0995 42.4001 23.296C42.4001 23.2771 42.4001 23.2581 42.4004 23.2392C42.4334 21.4023 42.3684 16.0843 41.6806 13.5747C41.6798 13.5723 41.6792 13.5698 41.6788 13.5673C41.356 12.3698 40.4098 11.4254 39.2103 11.1029C36.67 10.4084 26.6598 10.1908 22.9983 10.1652C19.3386 10.1908 9.33963 10.4028 6.78573 11.0681C5.60905 11.3946 4.64179 12.3726 4.31925 13.5634ZM18.4181 30.4691V15.9148L30.9962 23.1921L18.4181 30.4691Z" fill="#EB00FF"/>
</g>
<defs>
<clipPath id="clip0_1_3824">
<rect width="46" height="46" fill="white"/>
</clipPath>
</defs>
</svg>
