<svg width="12" height="18" viewBox="0 0 12 18" fill="none" xmlns="http://www.w3.org/2000/svg">
<path d="M6.62466 0.328497L11.0969 5.94787C11.5471 6.52868 11.1405 7.3999 10.4 7.3999L8.90436 7.3999C8.42519 7.3999 8.0041 7.71935 8.0041 8.19852L8.0041 17.1285C8.0041 17.6077 7.65561 17.9998 7.16192 17.9998L4.80962 17.9998C4.34497 17.9998 3.9384 17.6077 3.9384 17.1285L3.9384 8.19852C3.9384 7.71935 3.56073 7.3999 3.0817 7.3999L1.5861 7.3999C0.860088 7.3999 0.453517 6.52868 0.903648 5.96239L5.25975 0.357538C5.59372 -0.107113 6.27618 -0.121634 6.62466 0.328497Z" fill="#00FF47"/>
</svg>
