<svg width="12" height="18" viewBox="0 0 12 18" fill="none" xmlns="http://www.w3.org/2000/svg">
<path d="M6.62466 17.6715L11.0969 12.0521C11.5471 11.4713 11.1405 10.6001 10.4 10.6001L8.90436 10.6001C8.42519 10.6001 8.0041 10.2806 8.0041 9.80148L8.0041 0.871465C8.0041 0.392293 7.65561 0.000243982 7.16192 0.00024396L4.80962 0.000243858C4.34497 0.000243837 3.9384 0.392293 3.9384 0.871464L3.9384 9.80148C3.9384 10.2806 3.56073 10.6001 3.0817 10.6001L1.5861 10.6001C0.860087 10.6001 0.453516 11.4713 0.903647 12.0376L5.25975 17.6425C5.59372 18.1071 6.27618 18.1216 6.62466 17.6715Z" fill="#BF2B3C"/>
</svg>
